<svg width="302" height="87" viewBox="0 0 302 87" fill="none" xmlns="http://www.w3.org/2000/svg">
<path d="M96.921 42.414C95.058 42.414 93.3215 42.115 91.7115 41.517C90.1245 40.896 88.7445 40.022 87.5715 38.895C86.3985 37.768 85.4785 36.4455 84.8115 34.9275C84.1675 33.4095 83.8455 31.742 83.8455 29.925C83.8455 28.108 84.1675 26.4405 84.8115 24.9225C85.4785 23.4045 86.3985 22.082 87.5715 20.955C88.7675 19.828 90.159 18.9655 91.746 18.3675C93.333 17.7465 95.0695 17.436 96.9555 17.436C99.0485 17.436 100.935 17.804 102.614 18.54C104.316 19.253 105.742 20.311 106.892 21.714L103.304 25.026C102.476 24.083 101.556 23.3815 100.544 22.9215C99.5315 22.4385 98.4275 22.197 97.2315 22.197C96.1045 22.197 95.0695 22.381 94.1265 22.749C93.1835 23.117 92.367 23.646 91.677 24.336C90.987 25.026 90.4465 25.8425 90.0555 26.7855C89.6875 27.7285 89.5035 28.775 89.5035 29.925C89.5035 31.075 89.6875 32.1215 90.0555 33.0645C90.4465 34.0075 90.987 34.824 91.677 35.514C92.367 36.204 93.1835 36.733 94.1265 37.101C95.0695 37.469 96.1045 37.653 97.2315 37.653C98.4275 37.653 99.5315 37.423 100.544 36.963C101.556 36.48 102.476 35.7555 103.304 34.7895L106.892 38.1015C105.742 39.5045 104.316 40.574 102.614 41.31C100.935 42.046 99.037 42.414 96.921 42.414ZM118.478 42.276C116.5 42.276 114.741 41.862 113.2 41.034C111.682 40.206 110.474 39.079 109.577 37.653C108.703 36.204 108.266 34.5595 108.266 32.7195C108.266 30.8565 108.703 29.212 109.577 27.786C110.474 26.337 111.682 25.21 113.2 24.405C114.741 23.577 116.5 23.163 118.478 23.163C120.433 23.163 122.181 23.577 123.722 24.405C125.263 25.21 126.471 26.3255 127.345 27.7515C128.219 29.1775 128.656 30.8335 128.656 32.7195C128.656 34.5595 128.219 36.204 127.345 37.653C126.471 39.079 125.263 40.206 123.722 41.034C122.181 41.862 120.433 42.276 118.478 42.276ZM118.478 37.86C119.375 37.86 120.18 37.653 120.893 37.239C121.606 36.825 122.17 36.2385 122.584 35.4795C122.998 34.6975 123.205 33.7775 123.205 32.7195C123.205 31.6385 122.998 30.7185 122.584 29.9595C122.17 29.2005 121.606 28.614 120.893 28.2C120.18 27.786 119.375 27.579 118.478 27.579C117.581 27.579 116.776 27.786 116.063 28.2C115.35 28.614 114.775 29.2005 114.338 29.9595C113.924 30.7185 113.717 31.6385 113.717 32.7195C113.717 33.7775 113.924 34.6975 114.338 35.4795C114.775 36.2385 115.35 36.825 116.063 37.239C116.776 37.653 117.581 37.86 118.478 37.86ZM132.253 42V16.401H137.635V42H132.253ZM142.63 42V16.401H148.012V42H142.63ZM162.218 42.276C160.102 42.276 158.239 41.862 156.629 41.034C155.042 40.206 153.812 39.079 152.938 37.653C152.064 36.204 151.627 34.5595 151.627 32.7195C151.627 30.8565 152.052 29.212 152.903 27.786C153.777 26.337 154.962 25.21 156.457 24.405C157.952 23.577 159.642 23.163 161.528 23.163C163.345 23.163 164.978 23.554 166.427 24.336C167.899 25.095 169.061 26.199 169.912 27.648C170.763 29.074 171.188 30.7875 171.188 32.7885C171.188 32.9955 171.177 33.237 171.154 33.513C171.131 33.766 171.108 34.0075 171.085 34.2375H156.008V31.098H168.256L166.186 32.0295C166.186 31.0635 165.99 30.224 165.599 29.511C165.208 28.798 164.668 28.246 163.978 27.855C163.288 27.441 162.483 27.234 161.563 27.234C160.643 27.234 159.826 27.441 159.113 27.855C158.423 28.246 157.883 28.8095 157.492 29.5455C157.101 30.2585 156.905 31.1095 156.905 32.0985V32.9265C156.905 33.9385 157.124 34.8355 157.561 35.6175C158.021 36.3765 158.653 36.963 159.458 37.377C160.286 37.768 161.252 37.9635 162.356 37.9635C163.345 37.9635 164.208 37.814 164.944 37.515C165.703 37.216 166.393 36.7675 167.014 36.1695L169.877 39.2745C169.026 40.2405 167.957 40.988 166.669 41.517C165.381 42.023 163.897 42.276 162.218 42.276ZM183.742 42.276C181.741 42.276 179.958 41.8735 178.394 41.0685C176.83 40.2405 175.6 39.102 174.703 37.653C173.829 36.204 173.392 34.5595 173.392 32.7195C173.392 30.8565 173.829 29.212 174.703 27.786C175.6 26.337 176.83 25.21 178.394 24.405C179.958 23.577 181.741 23.163 183.742 23.163C185.697 23.163 187.399 23.577 188.848 24.405C190.297 25.21 191.366 26.3715 192.056 27.8895L187.882 30.132C187.399 29.258 186.789 28.614 186.053 28.2C185.34 27.786 184.558 27.579 183.707 27.579C182.787 27.579 181.959 27.786 181.223 28.2C180.487 28.614 179.901 29.2005 179.464 29.9595C179.05 30.7185 178.843 31.6385 178.843 32.7195C178.843 33.8005 179.05 34.7205 179.464 35.4795C179.901 36.2385 180.487 36.825 181.223 37.239C181.959 37.653 182.787 37.86 183.707 37.86C184.558 37.86 185.34 37.6645 186.053 37.2735C186.789 36.8595 187.399 36.204 187.882 35.307L192.056 37.584C191.366 39.079 190.297 40.2405 188.848 41.0685C187.399 41.8735 185.697 42.276 183.742 42.276ZM203.014 42.276C200.829 42.276 199.127 41.724 197.908 40.62C196.689 39.493 196.08 37.8255 196.08 35.6175V19.3335H201.462V35.5485C201.462 36.3305 201.669 36.94 202.083 37.377C202.497 37.791 203.06 37.998 203.773 37.998C204.624 37.998 205.349 37.768 205.947 37.308L207.396 41.103C206.844 41.494 206.177 41.793 205.395 42C204.636 42.184 203.842 42.276 203.014 42.276ZM193.216 27.993V23.853H206.085V27.993H193.216ZM210.417 42V23.439H215.799V42H210.417ZM213.108 20.8515C212.119 20.8515 211.314 20.564 210.693 19.989C210.072 19.414 209.762 18.701 209.762 17.85C209.762 16.999 210.072 16.286 210.693 15.711C211.314 15.136 212.119 14.8485 213.108 14.8485C214.097 14.8485 214.902 15.1245 215.523 15.6765C216.144 16.2055 216.455 16.8955 216.455 17.7465C216.455 18.6435 216.144 19.391 215.523 19.989C214.925 20.564 214.12 20.8515 213.108 20.8515ZM221.45 42V23.025C221.45 20.932 222.071 19.2645 223.313 18.0225C224.555 16.7575 226.326 16.125 228.626 16.125C229.408 16.125 230.155 16.2055 230.868 16.3665C231.604 16.5275 232.225 16.7805 232.731 17.1255L231.317 21.024C231.018 20.817 230.684 20.656 230.316 20.541C229.948 20.426 229.557 20.3685 229.143 20.3685C228.361 20.3685 227.752 20.5985 227.315 21.0585C226.901 21.4955 226.694 22.1625 226.694 23.0595V24.7845L226.832 27.096V42H221.45ZM218.586 27.993V23.853H231.455V27.993H218.586ZM236.819 48.969C235.853 48.969 234.898 48.8195 233.955 48.5205C233.012 48.2215 232.242 47.8075 231.644 47.2785L233.61 43.449C234.024 43.817 234.496 44.1045 235.025 44.3115C235.577 44.5185 236.117 44.622 236.646 44.622C237.405 44.622 238.003 44.438 238.44 44.07C238.9 43.725 239.314 43.1385 239.682 42.3105L240.648 40.0335L241.062 39.447L247.721 23.439H252.896L244.512 43.1385C243.914 44.6335 243.224 45.8065 242.442 46.6575C241.683 47.5085 240.832 48.1065 239.889 48.4515C238.969 48.7965 237.946 48.969 236.819 48.969ZM239.993 42.7245L231.713 23.439H237.267L243.684 38.964L239.993 42.7245Z" fill="white"/>
<path d="M5 16.8755C5 14.4605 6.96 12.5005 9.375 12.5005H43.125C45.54 12.5005 47.5 14.4605 47.5 16.8755V38.1255C47.5 39.2858 47.0391 40.3986 46.2186 41.2191C45.3981 42.0396 44.2853 42.5005 43.125 42.5005H9.375C8.21468 42.5005 7.10188 42.0396 6.28141 41.2191C5.46094 40.3986 5 39.2858 5 38.1255V16.8755ZM14.375 15.6255C13.3395 15.6255 12.5 16.465 12.5 17.5005V18.1255C12.5 18.6228 12.3025 19.0997 11.9508 19.4513C11.5992 19.8029 11.1223 20.0005 10.625 20.0005H10C8.96447 20.0005 8.125 20.84 8.125 21.8755C8.125 22.911 8.96447 23.7505 10 23.7505H10.625C11.3637 23.7505 12.0951 23.605 12.7776 23.3223C13.4601 23.0396 14.0801 22.6253 14.6025 22.103C15.1248 21.5806 15.5391 20.9605 15.8218 20.2781C16.1045 19.5956 16.25 18.8642 16.25 18.1255V17.5005C16.25 16.465 15.4105 15.6255 14.375 15.6255ZM26.25 33.7505C27.7418 33.7505 29.1726 33.1579 30.2275 32.103C31.2824 31.0481 31.875 29.6173 31.875 28.1255C31.875 26.6336 31.2824 25.2029 30.2275 24.148C29.1726 23.0931 27.7418 22.5005 26.25 22.5005C24.7582 22.5005 23.3274 23.0931 22.2725 24.148C21.2176 25.2029 20.625 26.6336 20.625 28.1255C20.625 29.6173 21.2176 31.0481 22.2725 32.103C23.3274 33.1579 24.7582 33.7505 26.25 33.7505ZM8.125 33.1255C8.125 34.161 8.96447 35.0005 10 35.0005H10.625C11.1223 35.0005 11.5992 35.198 11.9508 35.5497C12.3025 35.9013 12.5 36.3782 12.5 36.8755V37.5005C12.5 38.536 13.3395 39.3755 14.375 39.3755C15.4105 39.3755 16.25 38.536 16.25 37.5005V36.8755C16.25 35.3836 15.6574 33.9529 14.6025 32.898C13.5476 31.8431 12.1168 31.2505 10.625 31.2505H10C8.96447 31.2505 8.125 32.09 8.125 33.1255ZM40 36.8755C40 36.3782 40.1975 35.9013 40.5492 35.5497C40.9008 35.198 41.3777 35.0005 41.875 35.0005H42.5C43.5355 35.0005 44.375 34.161 44.375 33.1255C44.375 32.09 43.5355 31.2505 42.5 31.2505H41.875C40.3832 31.2505 38.9524 31.8431 37.8975 32.898C36.8426 33.9529 36.25 35.3836 36.25 36.8755V37.5005C36.25 38.536 37.0895 39.3755 38.125 39.3755C39.1605 39.3755 40 38.536 40 37.5005V36.8755ZM40 18.1255V17.5005C40 16.465 39.1605 15.6255 38.125 15.6255C37.0895 15.6255 36.25 16.465 36.25 17.5005V18.1255C36.25 18.8642 36.3955 19.5956 36.6782 20.2781C36.9609 20.9605 37.3752 21.5806 37.8975 22.103C38.9524 23.1579 40.3832 23.7505 41.875 23.7505H42.5C43.5355 23.7505 44.375 22.911 44.375 21.8755C44.375 20.84 43.5355 20.0005 42.5 20.0005H41.875C41.3777 20.0005 40.9008 19.8029 40.5492 19.4513C40.1975 19.0997 40 18.6228 40 18.1255ZM14.9307 46.2505C13.1847 46.2505 12.2362 48.1238 13.7485 48.9966C14.8891 49.6549 16.183 50.0011 17.5 50.0005H43.125C44.6844 50.0005 46.2286 49.6933 47.6694 49.0966C49.1101 48.4998 50.4192 47.6251 51.5219 46.5224C52.6246 45.4197 53.4993 44.1106 54.0961 42.6699C54.6928 41.2291 55 39.6849 55 38.1255V25.0005C55.0004 23.6836 54.654 22.3898 53.9958 21.2492C53.1231 19.7371 51.25 20.6853 51.25 22.4311V38.1255C51.25 40.2804 50.394 42.347 48.8702 43.8707C47.3465 45.3945 45.2799 46.2505 43.125 46.2505H14.9307Z" fill="url(#paint0_linear_475_603)"/>
<path d="M82.858 81L86.114 64.676H88.226L86.664 72.398L85.894 75.06L85.564 77.568L84.86 81H82.858ZM89.568 81.132C88.5707 81.132 87.7127 80.956 86.994 80.604C86.29 80.2373 85.7473 79.7167 85.366 79.042C84.9847 78.3527 84.794 77.524 84.794 76.556C84.794 75.4707 84.9333 74.4807 85.212 73.586C85.4907 72.6767 85.9013 71.8993 86.444 71.254C87.0013 70.6087 87.6613 70.11 88.424 69.758C89.1867 69.406 90.052 69.23 91.02 69.23C92.0173 69.23 92.8973 69.428 93.66 69.824C94.4373 70.22 95.046 70.7993 95.486 71.562C95.9407 72.31 96.168 73.2047 96.168 74.246C96.168 75.2433 95.9993 76.16 95.662 76.996C95.3393 77.832 94.8773 78.558 94.276 79.174C93.6893 79.79 92.9927 80.274 92.186 80.626C91.3793 80.9633 90.5067 81.132 89.568 81.132ZM89.48 79.284C90.36 79.284 91.1373 79.0713 91.812 78.646C92.5013 78.2207 93.044 77.6413 93.44 76.908C93.836 76.16 94.034 75.3093 94.034 74.356C94.034 73.3293 93.7333 72.53 93.132 71.958C92.5307 71.3713 91.6727 71.078 90.558 71.078C89.6927 71.078 88.908 71.2907 88.204 71.716C87.5147 72.1267 86.972 72.706 86.576 73.454C86.1947 74.1873 86.004 75.038 86.004 76.006C86.004 77.018 86.3047 77.8173 86.906 78.404C87.5073 78.9907 88.3653 79.284 89.48 79.284ZM97.3558 85.4C96.7985 85.4 96.2485 85.3047 95.7058 85.114C95.1632 84.938 94.7378 84.6887 94.4298 84.366L95.5298 82.804C95.7792 83.0533 96.0725 83.244 96.4098 83.376C96.7325 83.5227 97.0992 83.596 97.5098 83.596C97.9938 83.596 98.4265 83.464 98.8078 83.2C99.2038 82.9507 99.6072 82.5033 100.018 81.858L101.118 80.164L101.36 79.922L108.026 69.34H110.16L101.888 82.276C101.374 83.068 100.89 83.6913 100.436 84.146C99.9812 84.6007 99.5045 84.9233 99.0058 85.114C98.5218 85.3047 97.9718 85.4 97.3558 85.4ZM100.722 81.374L97.7958 69.34H99.9078L102.394 79.724L100.722 81.374ZM116.015 81L119.095 65.6H124.837C126.641 65.6 128.034 65.996 129.017 66.788C130.014 67.58 130.513 68.6873 130.513 70.11C130.513 71.4007 130.22 72.508 129.633 73.432C129.061 74.356 128.232 75.0673 127.147 75.566C126.062 76.05 124.771 76.292 123.275 76.292H118.237L119.359 75.28L118.237 81H116.015ZM126.377 81L123.209 75.412H125.563L128.709 81H126.377ZM119.315 75.522L118.567 74.422H123.341C124.91 74.422 126.128 74.0773 126.993 73.388C127.873 72.684 128.313 71.6573 128.313 70.308C128.313 69.384 127.998 68.6873 127.367 68.218C126.736 67.7487 125.827 67.514 124.639 67.514H120.019L121.141 66.392L119.315 75.522ZM137.279 81.132C136.135 81.132 135.145 80.9267 134.309 80.516C133.473 80.0907 132.828 79.504 132.373 78.756C131.919 77.9933 131.691 77.0987 131.691 76.072C131.691 74.752 131.977 73.5787 132.549 72.552C133.121 71.5253 133.899 70.7187 134.881 70.132C135.879 69.5307 137.008 69.23 138.269 69.23C139.325 69.23 140.242 69.4353 141.019 69.846C141.797 70.242 142.398 70.814 142.823 71.562C143.263 72.31 143.483 73.212 143.483 74.268C143.483 74.532 143.469 74.8033 143.439 75.082C143.41 75.346 143.373 75.5953 143.329 75.83H133.231L133.495 74.29H142.317L141.459 74.818C141.591 73.9967 141.533 73.3073 141.283 72.75C141.034 72.178 140.638 71.7453 140.095 71.452C139.567 71.144 138.929 70.99 138.181 70.99C137.301 70.99 136.524 71.2027 135.849 71.628C135.189 72.0387 134.676 72.618 134.309 73.366C133.943 74.0993 133.759 74.9647 133.759 75.962C133.759 77.018 134.06 77.8393 134.661 78.426C135.277 78.998 136.209 79.284 137.455 79.284C138.189 79.284 138.871 79.1667 139.501 78.932C140.132 78.6827 140.653 78.3527 141.063 77.942L141.965 79.46C141.408 80.0027 140.711 80.4207 139.875 80.714C139.039 80.9927 138.174 81.132 137.279 81.132ZM145.449 81L148.023 68.24C148.257 67.0667 148.734 66.1573 149.453 65.512C150.186 64.8667 151.147 64.544 152.335 64.544C152.819 64.544 153.273 64.61 153.699 64.742C154.139 64.8593 154.498 65.0353 154.777 65.27L153.897 66.832C153.486 66.4653 152.965 66.282 152.335 66.282C151.704 66.282 151.198 66.458 150.817 66.81C150.45 67.162 150.193 67.6973 150.047 68.416L149.717 69.934L149.607 70.814L147.561 81H145.449ZM145.449 71.078L145.779 69.34H153.237L152.885 71.078H145.449ZM157.873 81.132C156.89 81.132 156.01 80.934 155.233 80.538C154.455 80.1273 153.839 79.548 153.385 78.8C152.945 78.052 152.725 77.15 152.725 76.094C152.725 75.0967 152.886 74.18 153.209 73.344C153.546 72.508 154.008 71.782 154.595 71.166C155.196 70.55 155.9 70.0733 156.707 69.736C157.513 69.3987 158.386 69.23 159.325 69.23C160.337 69.23 161.195 69.406 161.899 69.758C162.603 70.11 163.145 70.6307 163.527 71.32C163.908 71.9947 164.099 72.8233 164.099 73.806C164.099 75.2433 163.849 76.5193 163.351 77.634C162.852 78.734 162.133 79.592 161.195 80.208C160.271 80.824 159.163 81.132 157.873 81.132ZM158.335 79.284C159.215 79.284 159.999 79.0713 160.689 78.646C161.378 78.2207 161.913 77.6413 162.295 76.908C162.691 76.16 162.889 75.3093 162.889 74.356C162.889 73.3293 162.588 72.53 161.987 71.958C161.385 71.3713 160.527 71.078 159.413 71.078C158.547 71.078 157.77 71.2907 157.081 71.716C156.391 72.1267 155.849 72.706 155.453 73.454C155.057 74.1873 154.859 75.038 154.859 76.006C154.859 77.018 155.159 77.8173 155.761 78.404C156.362 78.9907 157.22 79.284 158.335 79.284ZM161.701 81L162.317 77.986L163.021 75.28L163.307 72.508L163.923 69.34H166.035L163.725 81H161.701ZM172.869 81.132C171.886 81.132 171.006 80.934 170.229 80.538C169.451 80.1273 168.835 79.548 168.381 78.8C167.941 78.052 167.721 77.15 167.721 76.094C167.721 75.0967 167.882 74.18 168.205 73.344C168.542 72.508 169.004 71.782 169.591 71.166C170.192 70.55 170.896 70.0733 171.703 69.736C172.509 69.3987 173.382 69.23 174.321 69.23C175.333 69.23 176.191 69.406 176.895 69.758C177.599 70.11 178.141 70.6307 178.523 71.32C178.904 71.9947 179.095 72.8233 179.095 73.806C179.095 74.8913 178.955 75.8813 178.677 76.776C178.398 77.6707 177.98 78.448 177.423 79.108C176.88 79.7533 176.227 80.252 175.465 80.604C174.702 80.956 173.837 81.132 172.869 81.132ZM173.331 79.284C174.211 79.284 174.995 79.0713 175.685 78.646C176.374 78.2207 176.909 77.6413 177.291 76.908C177.687 76.16 177.885 75.3093 177.885 74.356C177.885 73.3293 177.584 72.53 176.983 71.958C176.381 71.3713 175.523 71.078 174.409 71.078C173.543 71.078 172.766 71.2907 172.077 71.716C171.387 72.1267 170.845 72.706 170.449 73.454C170.053 74.1873 169.855 75.038 169.855 76.006C169.855 77.018 170.155 77.8173 170.757 78.404C171.358 78.9907 172.216 79.284 173.331 79.284ZM176.697 81L177.313 77.986L177.995 75.28L178.303 72.508L179.865 64.676H181.977L178.721 81H176.697ZM182.563 85.4C182.006 85.4 181.456 85.3047 180.913 85.114C180.37 84.938 179.945 84.6887 179.637 84.366L180.737 82.804C180.986 83.0533 181.28 83.244 181.617 83.376C181.94 83.5227 182.306 83.596 182.717 83.596C183.201 83.596 183.634 83.464 184.015 83.2C184.411 82.9507 184.814 82.5033 185.225 81.858L186.325 80.164L186.567 79.922L193.233 69.34H195.367L187.095 82.276C186.582 83.068 186.098 83.6913 185.643 84.146C185.188 84.6007 184.712 84.9233 184.213 85.114C183.729 85.3047 183.179 85.4 182.563 85.4ZM185.929 81.374L183.003 69.34H185.115L187.601 79.724L185.929 81.374ZM205.974 81.176C205.197 81.176 204.434 81.0953 203.686 80.934C202.953 80.758 202.278 80.5307 201.662 80.252C201.061 79.9733 200.577 79.658 200.21 79.306L201.178 77.546C201.574 77.898 202.036 78.206 202.564 78.47C203.107 78.734 203.679 78.9393 204.28 79.086C204.896 79.2327 205.527 79.306 206.172 79.306C206.993 79.306 207.719 79.2033 208.35 78.998C208.981 78.7927 209.465 78.4993 209.802 78.118C210.154 77.722 210.33 77.2453 210.33 76.688C210.33 76.2333 210.183 75.8593 209.89 75.566C209.597 75.2727 209.215 75.038 208.746 74.862C208.291 74.6713 207.778 74.5027 207.206 74.356C206.649 74.1947 206.084 74.0187 205.512 73.828C204.955 73.6227 204.441 73.3733 203.972 73.08C203.517 72.7867 203.143 72.4127 202.85 71.958C202.571 71.4887 202.432 70.902 202.432 70.198C202.432 69.2153 202.703 68.372 203.246 67.668C203.789 66.9493 204.537 66.3993 205.49 66.018C206.458 65.622 207.573 65.424 208.834 65.424C209.787 65.424 210.697 65.534 211.562 65.754C212.427 65.974 213.168 66.2967 213.784 66.722L212.904 68.526C212.332 68.1153 211.687 67.8073 210.968 67.602C210.249 67.3967 209.501 67.294 208.724 67.294C207.888 67.294 207.162 67.404 206.546 67.624C205.93 67.844 205.453 68.1593 205.116 68.57C204.779 68.966 204.603 69.4353 204.588 69.978C204.588 70.4473 204.727 70.8287 205.006 71.122C205.285 71.4153 205.659 71.6573 206.128 71.848C206.597 72.0387 207.111 72.222 207.668 72.398C208.24 72.5593 208.805 72.7353 209.362 72.926C209.919 73.102 210.433 73.3367 210.902 73.63C211.386 73.9087 211.767 74.268 212.046 74.708C212.339 75.148 212.486 75.7053 212.486 76.38C212.486 77.3627 212.207 78.2207 211.65 78.954C211.107 79.6727 210.345 80.2227 209.362 80.604C208.394 80.9853 207.265 81.176 205.974 81.176ZM220.056 81.132C218.942 81.132 217.974 80.9267 217.152 80.516C216.346 80.0907 215.715 79.504 215.26 78.756C214.806 77.9933 214.578 77.106 214.578 76.094C214.578 74.774 214.872 73.6007 215.458 72.574C216.045 71.5327 216.852 70.7187 217.878 70.132C218.92 69.5307 220.1 69.23 221.42 69.23C222.52 69.23 223.481 69.4353 224.302 69.846C225.124 70.2567 225.754 70.836 226.194 71.584C226.649 72.332 226.876 73.2193 226.876 74.246C226.876 75.566 226.583 76.7467 225.996 77.788C225.41 78.8147 224.603 79.6287 223.576 80.23C222.564 80.8313 221.391 81.132 220.056 81.132ZM220.188 79.284C221.068 79.284 221.853 79.0713 222.542 78.646C223.232 78.2207 223.767 77.6413 224.148 76.908C224.544 76.16 224.742 75.3093 224.742 74.356C224.742 73.3293 224.442 72.53 223.84 71.958C223.239 71.3713 222.381 71.078 221.266 71.078C220.401 71.078 219.624 71.2907 218.934 71.716C218.245 72.1267 217.702 72.706 217.306 73.454C216.91 74.1873 216.712 75.038 216.712 76.006C216.712 77.018 217.013 77.8173 217.614 78.404C218.216 78.9907 219.074 79.284 220.188 79.284ZM228.851 81L231.425 68.24C231.66 67.0667 232.136 66.1573 232.855 65.512C233.588 64.8667 234.549 64.544 235.737 64.544C236.221 64.544 236.676 64.61 237.101 64.742C237.541 64.8593 237.9 65.0353 238.179 65.27L237.299 66.832C236.888 66.4653 236.368 66.282 235.737 66.282C235.106 66.282 234.6 66.458 234.219 66.81C233.852 67.162 233.596 67.6973 233.449 68.416L233.119 69.934L233.009 70.814L230.963 81H228.851ZM228.851 71.078L229.181 69.34H236.639L236.287 71.078H228.851ZM240.54 81.132C239.836 81.132 239.227 80.978 238.714 80.67C238.215 80.362 237.856 79.922 237.636 79.35C237.43 78.778 237.401 78.1033 237.548 77.326L239.66 66.788H241.772L239.66 77.282C239.557 77.9127 239.616 78.4187 239.836 78.8C240.07 79.1667 240.503 79.35 241.134 79.35C241.427 79.35 241.72 79.306 242.014 79.218C242.307 79.1153 242.571 78.976 242.806 78.8L243.246 80.406C242.85 80.6847 242.41 80.8753 241.926 80.978C241.456 81.0807 240.994 81.132 240.54 81.132ZM236.822 71.078L237.152 69.34H244.61L244.258 71.078H236.822ZM248.026 81L245.804 69.34H247.718L249.676 79.9H248.686L254.714 69.34H256.518L258.52 79.9H257.53L263.492 69.34H265.494L258.96 81H256.892L254.934 71.364H255.572L250.05 81H248.026ZM270.064 81.132C269.081 81.132 268.201 80.934 267.424 80.538C266.647 80.1273 266.031 79.548 265.576 78.8C265.136 78.052 264.916 77.15 264.916 76.094C264.916 75.0967 265.077 74.18 265.4 73.344C265.737 72.508 266.199 71.782 266.786 71.166C267.387 70.55 268.091 70.0733 268.898 69.736C269.705 69.3987 270.577 69.23 271.516 69.23C272.528 69.23 273.386 69.406 274.09 69.758C274.794 70.11 275.337 70.6307 275.718 71.32C276.099 71.9947 276.29 72.8233 276.29 73.806C276.29 75.2433 276.041 76.5193 275.542 77.634C275.043 78.734 274.325 79.592 273.386 80.208C272.462 80.824 271.355 81.132 270.064 81.132ZM270.526 79.284C271.406 79.284 272.191 79.0713 272.88 78.646C273.569 78.2207 274.105 77.6413 274.486 76.908C274.882 76.16 275.08 75.3093 275.08 74.356C275.08 73.3293 274.779 72.53 274.178 71.958C273.577 71.3713 272.719 71.078 271.604 71.078C270.739 71.078 269.961 71.2907 269.272 71.716C268.583 72.1267 268.04 72.706 267.644 73.454C267.248 74.1873 267.05 75.038 267.05 76.006C267.05 77.018 267.351 77.8173 267.952 78.404C268.553 78.9907 269.411 79.284 270.526 79.284ZM273.892 81L274.508 77.986L275.212 75.28L275.498 72.508L276.114 69.34H278.226L275.916 81H273.892ZM279.934 81L282.244 69.34H284.268L283.608 72.728L283.388 71.892C283.931 70.9093 284.62 70.22 285.456 69.824C286.292 69.428 287.326 69.23 288.558 69.23L288.162 71.276C288.074 71.2613 287.986 71.254 287.898 71.254C287.81 71.254 287.715 71.254 287.612 71.254C286.454 71.254 285.493 71.5693 284.73 72.2C283.982 72.8307 283.476 73.8207 283.212 75.17L282.046 81H279.934ZM294.266 81.132C293.122 81.132 292.132 80.9267 291.296 80.516C290.46 80.0907 289.814 79.504 289.36 78.756C288.905 77.9933 288.678 77.0987 288.678 76.072C288.678 74.752 288.964 73.5787 289.536 72.552C290.108 71.5253 290.885 70.7187 291.868 70.132C292.865 69.5307 293.994 69.23 295.256 69.23C296.312 69.23 297.228 69.4353 298.006 69.846C298.783 70.242 299.384 70.814 299.81 71.562C300.25 72.31 300.47 73.212 300.47 74.268C300.47 74.532 300.455 74.8033 300.426 75.082C300.396 75.346 300.36 75.5953 300.316 75.83H290.218L290.482 74.29H299.304L298.446 74.818C298.578 73.9967 298.519 73.3073 298.27 72.75C298.02 72.178 297.624 71.7453 297.082 71.452C296.554 71.144 295.916 70.99 295.168 70.99C294.288 70.99 293.51 71.2027 292.836 71.628C292.176 72.0387 291.662 72.618 291.296 73.366C290.929 74.0993 290.746 74.9647 290.746 75.962C290.746 77.018 291.046 77.8393 291.648 78.426C292.264 78.998 293.195 79.284 294.442 79.284C295.175 79.284 295.857 79.1667 296.488 78.932C297.118 78.6827 297.639 78.3527 298.05 77.942L298.952 79.46C298.394 80.0027 297.698 80.4207 296.862 80.714C296.026 80.9927 295.16 81.132 294.266 81.132Z" fill="white"/>
<defs>
<linearGradient id="paint0_linear_475_603" x1="5" y1="31.2505" x2="55" y2="31.2505" gradientUnits="userSpaceOnUse">
<stop stop-color="#438CE2"/>
<stop offset="0.532151" stop-color="#2D588B"/>
<stop offset="1" stop-color="#6958D0"/>
</linearGradient>
</defs>
</svg>
