<svg width="193" height="43" viewBox="0 0 193 43" fill="none" xmlns="http://www.w3.org/2000/svg">
<path d="M69.2662 30.7279C67.9347 30.7279 66.6937 30.5142 65.5431 30.0868C64.4089 29.643 63.4227 29.0184 62.5844 28.213C61.7461 27.4075 61.0886 26.4624 60.6119 25.3775C60.1517 24.2927 59.9215 23.101 59.9215 21.8024C59.9215 20.5039 60.1517 19.3121 60.6119 18.2273C61.0886 17.1424 61.7461 16.1973 62.5844 15.3918C63.4391 14.5864 64.4336 13.97 65.5678 13.5426C66.7019 13.0988 67.943 12.8769 69.2908 12.8769C70.7866 12.8769 72.1345 13.1399 73.3344 13.6659C74.5508 14.1755 75.5699 14.9316 76.3918 15.9343L73.8275 18.3013C73.2358 17.6273 72.5783 17.126 71.8551 16.7972C71.1318 16.4521 70.3428 16.2795 69.4881 16.2795C68.6826 16.2795 67.943 16.411 67.269 16.674C66.5951 16.937 66.0116 17.315 65.5185 17.8081C65.0253 18.3013 64.6391 18.8848 64.3596 19.5587C64.0966 20.2326 63.9651 20.9805 63.9651 21.8024C63.9651 22.6243 64.0966 23.3722 64.3596 24.0461C64.6391 24.72 65.0253 25.3036 65.5185 25.7967C66.0116 26.2898 66.5951 26.6679 67.269 26.9309C67.943 27.1939 68.6826 27.3254 69.4881 27.3254C70.3428 27.3254 71.1318 27.161 71.8551 26.8322C72.5783 26.487 73.2358 25.9693 73.8275 25.2789L76.3918 27.6459C75.5699 28.6486 74.5508 29.4129 73.3344 29.9389C72.1345 30.4649 70.7784 30.7279 69.2662 30.7279ZM84.6723 30.6293C83.2587 30.6293 82.0013 30.3334 80.9 29.7416C79.8151 29.1499 78.9521 28.3445 78.3111 27.3254C77.6865 26.2898 77.3741 25.1145 77.3741 23.7995C77.3741 22.4681 77.6865 21.2928 78.3111 20.2737C78.9521 19.2382 79.8151 18.4328 80.9 17.8574C82.0013 17.2657 83.2587 16.9698 84.6723 16.9698C86.0695 16.9698 87.3187 17.2657 88.42 17.8574C89.5213 18.4328 90.3843 19.23 91.0089 20.2491C91.6335 21.2682 91.9458 22.4517 91.9458 23.7995C91.9458 25.1145 91.6335 26.2898 91.0089 27.3254C90.3843 28.3445 89.5213 29.1499 88.42 29.7416C87.3187 30.3334 86.0695 30.6293 84.6723 30.6293ZM84.6723 27.4733C85.3134 27.4733 85.8887 27.3254 86.3982 27.0295C86.9078 26.7336 87.3105 26.3145 87.6064 25.772C87.9023 25.2132 88.0502 24.5557 88.0502 23.7995C88.0502 23.027 87.9023 22.3695 87.6064 21.8271C87.3105 21.2846 86.9078 20.8655 86.3982 20.5696C85.8887 20.2737 85.3134 20.1258 84.6723 20.1258C84.0313 20.1258 83.456 20.2737 82.9464 20.5696C82.4368 20.8655 82.0259 21.2846 81.7136 21.8271C81.4177 22.3695 81.2698 23.027 81.2698 23.7995C81.2698 24.5557 81.4177 25.2132 81.7136 25.772C82.0259 26.3145 82.4368 26.7336 82.9464 27.0295C83.456 27.3254 84.0313 27.4733 84.6723 27.4733ZM94.5168 30.432V12.1373H98.3631V30.432H94.5168ZM101.933 30.432V12.1373H105.779V30.432H101.933ZM115.932 30.6293C114.42 30.6293 113.088 30.3334 111.938 29.7416C110.804 29.1499 109.924 28.3445 109.3 27.3254C108.675 26.2898 108.363 25.1145 108.363 23.7995C108.363 22.4681 108.667 21.2928 109.275 20.2737C109.9 19.2382 110.746 18.4328 111.815 17.8574C112.883 17.2657 114.091 16.9698 115.439 16.9698C116.738 16.9698 117.905 17.2493 118.94 17.8081C119.992 18.3506 120.822 19.1396 121.43 20.1751C122.039 21.1942 122.343 22.4188 122.343 23.8489C122.343 23.9968 122.334 24.1694 122.318 24.3666C122.302 24.5474 122.285 24.72 122.269 24.8844H111.494V22.6407H120.247L118.768 23.3064C118.768 22.6161 118.628 22.0161 118.348 21.5065C118.069 20.997 117.683 20.6025 117.19 20.323C116.696 20.0272 116.121 19.8792 115.464 19.8792C114.806 19.8792 114.223 20.0272 113.713 20.323C113.22 20.6025 112.834 21.0052 112.554 21.5312C112.275 22.0407 112.135 22.6489 112.135 23.3557V23.9475C112.135 24.6707 112.291 25.3118 112.604 25.8706C112.932 26.4131 113.384 26.8322 113.96 27.1281C114.551 27.4075 115.242 27.5473 116.031 27.5473C116.738 27.5473 117.354 27.4404 117.88 27.2267C118.422 27.013 118.915 26.6925 119.359 26.2651L121.406 28.4842C120.798 29.1746 120.033 29.7088 119.113 30.0868C118.192 30.4484 117.132 30.6293 115.932 30.6293ZM131.314 30.6293C129.884 30.6293 128.61 30.3416 127.492 29.7663C126.375 29.1746 125.495 28.3609 124.854 27.3254C124.229 26.2898 123.917 25.1145 123.917 23.7995C123.917 22.4681 124.229 21.2928 124.854 20.2737C125.495 19.2382 126.375 18.4328 127.492 17.8574C128.61 17.2657 129.884 16.9698 131.314 16.9698C132.711 16.9698 133.928 17.2657 134.963 17.8574C135.999 18.4328 136.763 19.2628 137.256 20.3477L134.273 21.9503C133.928 21.3257 133.492 20.8655 132.966 20.5696C132.456 20.2737 131.897 20.1258 131.289 20.1258C130.632 20.1258 130.04 20.2737 129.514 20.5696C128.988 20.8655 128.569 21.2846 128.257 21.8271C127.961 22.3695 127.813 23.027 127.813 23.7995C127.813 24.5721 127.961 25.2296 128.257 25.772C128.569 26.3145 128.988 26.7336 129.514 27.0295C130.04 27.3254 130.632 27.4733 131.289 27.4733C131.897 27.4733 132.456 27.3336 132.966 27.0541C133.492 26.7583 133.928 26.2898 134.273 25.6487L137.256 27.276C136.763 28.3445 135.999 29.1746 134.963 29.7663C133.928 30.3416 132.711 30.6293 131.314 30.6293ZM145.088 30.6293C143.526 30.6293 142.31 30.2348 141.439 29.4458C140.567 28.6403 140.132 27.4486 140.132 25.8706V14.233H143.978V25.8213C143.978 26.3802 144.126 26.8158 144.422 27.1281C144.718 27.424 145.12 27.5719 145.63 27.5719C146.238 27.5719 146.756 27.4075 147.183 27.0788L148.219 29.791C147.824 30.0704 147.348 30.2841 146.789 30.432C146.246 30.5635 145.679 30.6293 145.088 30.6293ZM138.085 20.4217V17.4629H147.282V20.4217H138.085ZM150.378 30.432V17.1671H154.224V30.432H150.378ZM152.301 15.3179C151.594 15.3179 151.019 15.1124 150.575 14.7015C150.132 14.2905 149.91 13.781 149.91 13.1728C149.91 12.5646 150.132 12.0551 150.575 11.6441C151.019 11.2332 151.594 11.0277 152.301 11.0277C153.008 11.0277 153.583 11.225 154.027 11.6195C154.471 11.9975 154.693 12.4907 154.693 13.0988C154.693 13.7399 154.471 14.2741 154.027 14.7015C153.6 15.1124 153.024 15.3179 152.301 15.3179ZM158.263 30.432V16.8712C158.263 15.3754 158.706 14.1837 159.594 13.2961C160.482 12.392 161.747 11.94 163.391 11.94C163.95 11.94 164.484 11.9975 164.994 12.1126C165.52 12.2277 165.963 12.4085 166.325 12.655L165.314 15.4412C165.101 15.2932 164.862 15.1782 164.599 15.096C164.336 15.0138 164.057 14.9727 163.761 14.9727C163.202 14.9727 162.766 15.1371 162.454 15.4658C162.158 15.7781 162.01 16.2548 162.01 16.8959V18.1287L162.109 19.7806V30.432H158.263ZM156.216 20.4217V17.4629H165.413V20.4217H156.216ZM169.246 35.4125C168.556 35.4125 167.874 35.3057 167.2 35.092C166.526 34.8783 165.975 34.5824 165.548 34.2044L166.953 31.4676C167.249 31.7306 167.586 31.936 167.964 32.084C168.359 32.2319 168.745 32.3059 169.123 32.3059C169.666 32.3059 170.093 32.1744 170.405 31.9114C170.734 31.6648 171.03 31.2457 171.293 30.6539L171.983 29.0266L172.279 28.6075L177.038 17.1671H180.736L174.745 31.2457C174.317 32.3141 173.824 33.1524 173.265 33.7606C172.723 34.3687 172.115 34.7961 171.441 35.0427C170.783 35.2892 170.052 35.4125 169.246 35.4125ZM171.515 30.9498L165.597 17.1671H169.567L174.153 28.2623L171.515 30.9498Z" fill="white"/>
<path d="M3.57324 12.06C3.57324 10.3341 4.97399 8.93335 6.69991 8.93335H30.8199C32.5458 8.93335 33.9466 10.3341 33.9466 12.06V27.2467C33.9466 28.0759 33.6172 28.8712 33.0308 29.4576C32.4444 30.0439 31.6492 30.3734 30.8199 30.3734H6.69991C5.87067 30.3734 5.07539 30.0439 4.48902 29.4576C3.90266 28.8712 3.57324 28.0759 3.57324 27.2467V12.06ZM10.2732 11.1667C9.53318 11.1667 8.93324 11.7666 8.93324 12.5067V12.9534C8.93324 13.3087 8.79207 13.6496 8.54077 13.9009C8.28947 14.1522 7.94863 14.2934 7.59324 14.2934H7.14658C6.40651 14.2934 5.80658 14.8933 5.80658 15.6334C5.80658 16.3734 6.40651 16.9734 7.14658 16.9734H7.59324C8.12116 16.9734 8.6439 16.8694 9.13163 16.6673C9.61936 16.4653 10.0625 16.1692 10.4358 15.7959C10.8091 15.4226 11.1052 14.9795 11.3072 14.4917C11.5093 14.004 11.6132 13.4813 11.6132 12.9534V12.5067C11.6132 11.7666 11.0133 11.1667 10.2732 11.1667ZM18.7599 24.12C19.8261 24.12 20.8486 23.6965 21.6025 22.9426C22.3564 22.1887 22.7799 21.1662 22.7799 20.1C22.7799 19.0338 22.3564 18.0113 21.6025 17.2574C20.8486 16.5036 19.8261 16.08 18.7599 16.08C17.6937 16.08 16.6712 16.5036 15.9173 17.2574C15.1634 18.0113 14.7399 19.0338 14.7399 20.1C14.7399 21.1662 15.1634 22.1887 15.9173 22.9426C16.6712 23.6965 17.6937 24.12 18.7599 24.12ZM5.80658 23.6734C5.80658 24.4134 6.40651 25.0134 7.14658 25.0134H7.59324C7.94863 25.0134 8.28947 25.1545 8.54077 25.4058C8.79207 25.6571 8.93324 25.998 8.93324 26.3534V26.8C8.93324 27.5401 9.53318 28.14 10.2732 28.14C11.0133 28.14 11.6132 27.5401 11.6132 26.8V26.3534C11.6132 25.2872 11.1897 24.2647 10.4358 23.5108C9.68192 22.7569 8.65941 22.3334 7.59324 22.3334H7.14658C6.40651 22.3334 5.80658 22.9333 5.80658 23.6734ZM28.5866 26.3534C28.5866 25.998 28.7278 25.6571 28.9791 25.4058C29.2304 25.1545 29.5712 25.0134 29.9266 25.0134H30.3732C31.1133 25.0134 31.7132 24.4134 31.7132 23.6734C31.7132 22.9333 31.1133 22.3334 30.3732 22.3334H29.9266C28.8604 22.3334 27.8379 22.7569 27.084 23.5108C26.3301 24.2647 25.9066 25.2872 25.9066 26.3534V26.8C25.9066 27.5401 26.5065 28.14 27.2466 28.14C27.9866 28.14 28.5866 27.5401 28.5866 26.8V26.3534ZM28.5866 12.9534V12.5067C28.5866 11.7666 27.9866 11.1667 27.2466 11.1667C26.5065 11.1667 25.9066 11.7666 25.9066 12.5067V12.9534C25.9066 13.4813 26.0106 14.004 26.2126 14.4917C26.4146 14.9795 26.7107 15.4226 27.084 15.7959C27.8379 16.5498 28.8604 16.9734 29.9266 16.9734H30.3732C31.1133 16.9734 31.7132 16.3734 31.7132 15.6334C31.7132 14.8933 31.1133 14.2934 30.3732 14.2934H29.9266C29.5712 14.2934 29.2304 14.1522 28.9791 13.9009C28.7278 13.6496 28.5866 13.3087 28.5866 12.9534ZM10.6704 33.0534C9.42254 33.0534 8.74473 34.3921 9.8255 35.0159C10.6407 35.4864 11.5654 35.7338 12.5066 35.7334H30.8199C31.9344 35.7334 33.038 35.5138 34.0676 35.0873C35.0973 34.6608 36.0328 34.0357 36.8209 33.2477C37.609 32.4596 38.2341 31.524 38.6606 30.4944C39.0871 29.4647 39.3066 28.3612 39.3066 27.2467V17.8667C39.3069 16.9255 39.0593 16.0009 38.5889 15.1857C37.9652 14.1051 36.6266 14.7827 36.6266 16.0304V27.2467C36.6266 28.7867 36.0148 30.2637 34.9259 31.3526C33.8369 32.4416 32.3599 33.0534 30.8199 33.0534H10.6704Z" fill="url(#paint0_linear_475_502)"/>
<defs>
<linearGradient id="paint0_linear_475_502" x1="3.57324" y1="22.3333" x2="39.3066" y2="22.3333" gradientUnits="userSpaceOnUse">
<stop stop-color="#438CE2"/>
<stop offset="0.532151" stop-color="#2D588B"/>
<stop offset="1" stop-color="#6958D0"/>
</linearGradient>
</defs>
</svg>
