<svg width="797" height="899" viewBox="0 0 797 899" fill="none" xmlns="http://www.w3.org/2000/svg">
<g filter="url(#filter0_f_480_516)">
<path d="M169.464 177.507C202.114 154.575 203.788 128.529 215.448 121.232L262.46 101.486C311.435 89.1518 415.681 64.7956 440.867 66.0464L441.979 66.1016C474.1 67.6954 548.455 71.3849 574.964 82.2028C601.783 93.1474 711.5 123.7 711.5 168C711.5 212.3 695.838 287.484 704 312.5C712.162 337.516 693.902 405.852 693.902 444.94V527.807C693.902 548.654 693.902 577.84 718.389 612.758C742.877 647.677 725.386 683.638 718.389 715.43C711.393 747.221 710.227 806.114 693.902 823.834C677.577 841.554 627.437 829.046 548.145 823.834C468.853 818.622 404.72 811.326 358.077 806.114C311.435 800.902 115.537 779.534 88.7177 772.238C61.8983 764.941 64.2304 683.638 68.8947 645.071C73.5589 606.504 68.8947 542.4 88.7177 485.592C108.541 428.784 108.541 365.2 115.537 342.269C122.533 319.337 136.814 200.438 169.464 177.507Z" fill="url(#paint0_linear_480_516)"/>
<path d="M169.464 177.507C202.114 154.575 203.788 128.529 215.448 121.232L262.46 101.486C311.435 89.1518 415.681 64.7956 440.867 66.0464L441.979 66.1016C474.1 67.6954 548.455 71.3849 574.964 82.2028C601.783 93.1474 711.5 123.7 711.5 168C711.5 212.3 695.838 287.484 704 312.5C712.162 337.516 693.902 405.852 693.902 444.94V527.807C693.902 548.654 693.902 577.84 718.389 612.758C742.877 647.677 725.386 683.638 718.389 715.43C711.393 747.221 710.227 806.114 693.902 823.834C677.577 841.554 627.437 829.046 548.145 823.834C468.853 818.622 404.72 811.326 358.077 806.114C311.435 800.902 115.537 779.534 88.7177 772.238C61.8983 764.941 64.2304 683.638 68.8947 645.071C73.5589 606.504 68.8947 542.4 88.7177 485.592C108.541 428.784 108.541 365.2 115.537 342.269C122.533 319.337 136.814 200.438 169.464 177.507Z" stroke="black"/>
</g>
<defs>
<filter id="filter0_f_480_516" x="0.699997" y="0.700119" width="795.6" height="897.6" filterUnits="userSpaceOnUse" color-interpolation-filters="sRGB">
<feFlood flood-opacity="0" result="BackgroundImageFix"/>
<feBlend mode="normal" in="SourceGraphic" in2="BackgroundImageFix" result="shape"/>
<feGaussianBlur stdDeviation="32.4" result="effect1_foregroundBlur_480_516"/>
</filter>
<linearGradient id="paint0_linear_480_516" x1="479.841" y1="450" x2="66" y2="450" gradientUnits="userSpaceOnUse">
<stop stop-color="#050910"/>
<stop offset="1" stop-color="#050910" stop-opacity="0"/>
</linearGradient>
</defs>
</svg>
