<svg width="37" height="37" viewBox="0 0 37 37" fill="none" xmlns="http://www.w3.org/2000/svg">
<path fill-rule="evenodd" clip-rule="evenodd" d="M14.7434 5.68094L13.8448 5.78909C13.8448 5.78909 9.81318 6.22976 6.86888 8.59418H6.83436L6.79754 8.62869C6.13712 9.23619 5.84947 9.98291 5.395 11.0748C4.85927 12.3885 4.4032 13.7332 4.02927 15.1018C3.17555 18.1888 2.48291 21.9281 2.48291 25.3488V25.6364L2.62673 25.924C3.69216 27.7937 5.58369 28.9845 7.33716 29.8072C9.08947 30.6299 10.6048 31.0659 11.6518 31.1016L12.3352 31.1373L12.6942 30.5263L13.9529 28.2965C15.2876 28.598 16.8247 28.8005 18.5909 28.8005C20.357 28.8005 21.8941 28.598 23.2288 28.2965L24.4875 30.5263L24.8477 31.1373L25.5299 31.1016C26.577 31.0659 28.0923 30.6299 29.8446 29.8072C31.598 28.9845 33.4896 27.7937 34.555 25.924L34.6988 25.6364V25.3488C34.6988 21.9281 34.0062 18.1888 33.1525 15.1018C32.7785 13.7332 32.3225 12.3885 31.7867 11.0748C31.3323 9.98176 31.0446 9.23619 30.3842 8.62985L30.3485 8.59303H30.3117C27.3697 6.22976 23.337 5.78909 23.337 5.78909L22.4384 5.68094L22.1139 6.5082C22.1139 6.5082 21.7814 7.34811 21.5754 8.30654C20.5863 8.17006 19.5894 8.09781 18.5909 8.09023C17.9753 8.09023 16.911 8.1305 15.6063 8.30654C15.3992 7.34811 15.0667 6.5082 15.0667 6.5082L14.7434 5.68094ZM13.1613 8.30654C13.2108 8.46761 13.2603 8.60683 13.3052 8.738C11.8175 9.10618 10.2308 9.66766 8.77537 10.5709L9.99727 12.513C12.9818 10.6606 17.2689 10.3914 18.5909 10.3914C19.9117 10.3914 24.1999 10.6606 27.1845 12.513L28.4064 10.5709C26.9509 9.66766 25.3643 9.10618 23.8766 8.73685C23.9214 8.60683 23.9709 8.46761 24.0204 8.30538C25.0939 8.52169 27.1442 9.01644 28.8378 10.3557C28.8286 10.3603 29.2693 11.0253 29.6651 11.9734C30.0701 12.9491 30.5188 14.2481 30.9238 15.7127C31.7016 18.5213 32.3125 21.9419 32.362 24.953C31.6372 26.0587 30.2944 27.0562 28.8735 27.7224C27.9824 28.1435 27.0396 28.4452 26.0696 28.6198L25.4943 27.6499C25.836 27.5233 26.1731 27.3853 26.4654 27.2541C28.2361 26.4763 29.198 25.6364 29.198 25.6364L27.6873 23.9105C27.6873 23.9105 27.0406 24.5042 25.5299 25.1693C24.0215 25.8343 21.7147 26.4993 18.5909 26.4993C15.4671 26.4993 13.1613 25.8343 11.6518 25.1693C10.1411 24.5042 9.49447 23.9105 9.49447 23.9105L7.98378 25.6364C7.98378 25.6364 8.94565 26.4763 10.7164 27.2541C11.0354 27.3971 11.3593 27.5291 11.6875 27.6499L11.1122 28.621C10.1416 28.4457 9.19847 28.1432 8.30709 27.7212C6.88729 27.0562 5.54342 26.0587 4.82086 24.953C4.86919 21.9419 5.48014 18.5213 6.25908 15.7127C6.60327 14.4423 7.02321 13.1936 7.51665 11.9734C7.91244 11.0253 8.35311 10.3603 8.3439 10.3557C10.0375 9.01644 12.0879 8.52169 13.1613 8.30654ZM14.5639 16.1442C13.6745 16.1442 12.8875 16.6516 12.4066 17.2948C11.9256 17.9379 11.6875 18.7284 11.6875 19.5959C11.6875 20.4634 11.9256 21.2539 12.4066 21.897C12.8875 22.5402 13.6745 23.0476 14.5639 23.0476C15.4533 23.0476 16.2403 22.5402 16.7212 21.897C17.2021 21.2539 17.4403 20.4634 17.4403 19.5959C17.4403 18.7284 17.2021 17.9379 16.7212 17.2948C16.2403 16.6516 15.4533 16.1442 14.5639 16.1442ZM22.6179 16.1442C21.7285 16.1442 20.9415 16.6516 20.4605 17.2948C19.9796 17.9379 19.7414 18.7284 19.7414 19.5959C19.7414 20.4634 19.9796 21.2539 20.4605 21.897C20.9415 22.5402 21.7285 23.0476 22.6179 23.0476C23.5072 23.0476 24.2942 22.5402 24.7752 21.897C25.2561 21.2539 25.4943 20.4634 25.4943 19.5959C25.4943 18.7284 25.2561 17.9379 24.7752 17.2948C24.2942 16.6516 23.5072 16.1442 22.6179 16.1442ZM14.5639 18.4453C14.6272 18.4453 14.7077 18.4684 14.8515 18.6616C14.9953 18.8538 15.1392 19.1909 15.1392 19.5959C15.1392 20.0009 14.9953 20.338 14.8515 20.5313C14.7077 20.7235 14.6272 20.7465 14.5639 20.7465C14.5006 20.7465 14.4201 20.7235 14.2762 20.5302C14.086 20.256 13.9855 19.9296 13.9886 19.5959C13.9886 19.1909 14.1324 18.8538 14.2762 18.6605C14.4201 18.4684 14.5006 18.4453 14.5639 18.4453ZM22.6179 18.4453C22.6811 18.4453 22.7617 18.4684 22.9055 18.6616C23.0493 18.8538 23.1931 19.1909 23.1931 19.5959C23.1931 20.0009 23.0493 20.338 22.9055 20.5313C22.7617 20.7235 22.6811 20.7465 22.6179 20.7465C22.5546 20.7465 22.474 20.7235 22.3302 20.5302C22.1399 20.256 22.0394 19.9296 22.0426 19.5959C22.0426 19.1909 22.1864 18.8538 22.3302 18.6605C22.474 18.4684 22.5546 18.4453 22.6179 18.4453Z" fill="white"/>
</svg>
