<svg width="43" height="43" viewBox="0 0 43 43" fill="none" xmlns="http://www.w3.org/2000/svg">
<g id="fluent:money-24-filled">
<path id="Vector" d="M3.57324 12.06C3.57324 10.3341 4.97399 8.93335 6.69991 8.93335H30.8199C32.5458 8.93335 33.9466 10.3341 33.9466 12.06V27.2467C33.9466 28.0759 33.6172 28.8712 33.0308 29.4576C32.4444 30.0439 31.6492 30.3734 30.8199 30.3734H6.69991C5.87067 30.3734 5.07539 30.0439 4.48902 29.4576C3.90266 28.8712 3.57324 28.0759 3.57324 27.2467V12.06ZM10.2732 11.1667C9.53318 11.1667 8.93324 11.7666 8.93324 12.5067V12.9534C8.93324 13.3087 8.79207 13.6496 8.54077 13.9009C8.28947 14.1522 7.94863 14.2934 7.59324 14.2934H7.14658C6.40651 14.2934 5.80658 14.8933 5.80658 15.6334V15.6334C5.80658 16.3734 6.40651 16.9734 7.14658 16.9734H7.59324C8.12116 16.9734 8.6439 16.8694 9.13163 16.6673C9.61936 16.4653 10.0625 16.1692 10.4358 15.7959C10.8091 15.4226 11.1052 14.9795 11.3072 14.4917C11.5093 14.004 11.6132 13.4813 11.6132 12.9534V12.5067C11.6132 11.7666 11.0133 11.1667 10.2732 11.1667V11.1667ZM18.7599 24.12C19.8261 24.12 20.8486 23.6965 21.6025 22.9426C22.3564 22.1887 22.7799 21.1662 22.7799 20.1C22.7799 19.0338 22.3564 18.0113 21.6025 17.2574C20.8486 16.5036 19.8261 16.08 18.7599 16.08C17.6937 16.08 16.6712 16.5036 15.9173 17.2574C15.1634 18.0113 14.7399 19.0338 14.7399 20.1C14.7399 21.1662 15.1634 22.1887 15.9173 22.9426C16.6712 23.6965 17.6937 24.12 18.7599 24.12ZM5.80658 23.6734C5.80658 24.4134 6.40651 25.0134 7.14658 25.0134H7.59324C7.94863 25.0134 8.28947 25.1545 8.54077 25.4058C8.79207 25.6571 8.93324 25.998 8.93324 26.3534V26.8C8.93324 27.5401 9.53318 28.14 10.2732 28.14V28.14C11.0133 28.14 11.6132 27.5401 11.6132 26.8V26.3534C11.6132 25.2872 11.1897 24.2647 10.4358 23.5108C9.68192 22.7569 8.65941 22.3334 7.59324 22.3334H7.14658C6.40651 22.3334 5.80658 22.9333 5.80658 23.6734V23.6734ZM28.5866 26.3534C28.5866 25.998 28.7278 25.6571 28.9791 25.4058C29.2304 25.1545 29.5712 25.0134 29.9266 25.0134H30.3732C31.1133 25.0134 31.7132 24.4134 31.7132 23.6734V23.6734C31.7132 22.9333 31.1133 22.3334 30.3732 22.3334H29.9266C28.8604 22.3334 27.8379 22.7569 27.084 23.5108C26.3301 24.2647 25.9066 25.2872 25.9066 26.3534V26.8C25.9066 27.5401 26.5065 28.14 27.2466 28.14V28.14C27.9866 28.14 28.5866 27.5401 28.5866 26.8V26.3534ZM28.5866 12.9534V12.5067C28.5866 11.7666 27.9866 11.1667 27.2466 11.1667V11.1667C26.5065 11.1667 25.9066 11.7666 25.9066 12.5067V12.9534C25.9066 13.4813 26.0106 14.004 26.2126 14.4917C26.4146 14.9795 26.7107 15.4226 27.084 15.7959C27.8379 16.5498 28.8604 16.9734 29.9266 16.9734H30.3732C31.1133 16.9734 31.7132 16.3734 31.7132 15.6334V15.6334C31.7132 14.8933 31.1133 14.2934 30.3732 14.2934H29.9266C29.5712 14.2934 29.2304 14.1522 28.9791 13.9009C28.7278 13.6496 28.5866 13.3087 28.5866 12.9534ZM10.6704 33.0534C9.42254 33.0534 8.74473 34.3921 9.8255 35.0159V35.0159C10.6407 35.4864 11.5654 35.7338 12.5066 35.7334H30.8199C31.9344 35.7334 33.038 35.5138 34.0676 35.0873C35.0973 34.6608 36.0328 34.0357 36.8209 33.2477C37.609 32.4596 38.2341 31.524 38.6606 30.4944C39.0871 29.4647 39.3066 28.3612 39.3066 27.2467V17.8667C39.3069 16.9255 39.0593 16.0009 38.5889 15.1857V15.1857C37.9652 14.1051 36.6266 14.7827 36.6266 16.0304V27.2467C36.6266 28.7867 36.0148 30.2637 34.9259 31.3526C33.8369 32.4416 32.3599 33.0534 30.8199 33.0534H10.6704Z" fill="url(#paint0_linear_556_495)"/>
</g>
<defs>
<linearGradient id="paint0_linear_556_495" x1="3.57324" y1="22.3333" x2="39.3066" y2="22.3333" gradientUnits="userSpaceOnUse">
<stop stop-color="#438CE2"/>
<stop offset="0.532151" stop-color="#2D588B"/>
<stop offset="1" stop-color="#6958D0"/>
</linearGradient>
</defs>
</svg>
